<?xml version="1.0" encoding="iso-8859-1"?>
<!-- Generator: Adobe Illustrator 19.0.0, SVG Export Plug-In . SVG Version: 6.00 Build 0)  -->
<svg version="1.1" id="Capa_1" xmlns="http://www.w3.org/2000/svg" xmlns:xlink="http://www.w3.org/1999/xlink" x="0px" y="0px"
	 viewBox="0 0 512.001 512.001" style="enable-background:new 0 0 512.001 512.001;" xml:space="preserve">
<path style="fill:#6B5445;" d="M433.532,229.174c-1.771-7.816-5.472-16.843-9.111-25.419c-1.618-3.813,0.161-8.217,3.974-9.835
	c3.814-1.614,8.217,0.161,9.835,3.975c3.904,9.201,7.888,18.94,9.932,27.964c0.916,4.04-1.618,8.058-5.659,8.973
	C438.501,235.745,434.453,233.246,433.532,229.174z"/>
<path style="fill:#9AD14B;" d="M202.299,145.208c-3.286,18.77,12.335,35.421,31.284,33.324c5.135-0.568,9.305-4.484,10.196-9.572
	C249.337,137.219,205.83,125.041,202.299,145.208z"/>
<path style="fill:#8DC133;" d="M215.543,135.467c-1.017,0.004-2.035,0.057-3.047,0.169c-20.444,2.262-10.7,46.414,21.088,42.896
	c5.102-0.564,9.523-4.312,10.374-10.791C226.716,167.808,213.283,152.702,215.543,135.467z"/>
<path style="fill:#F6B138;" d="M169.901,63.209c-0.433-4.751-3.403-8.898-7.763-10.836c-30.833-13.706-65.065,10.765-62.001,44.418
	c0.433,4.751,3.403,8.898,7.763,10.836C138.734,121.333,172.964,96.861,169.901,63.209z"/>
<path style="fill:#F2902F;" d="M170.029,69.209c0.089-1.995,0.053-3.999-0.128-5.999c-0.433-4.751-3.403-8.898-7.763-10.836
	c-30.833-13.706-65.065,10.765-62.001,44.418c0.774,8.5,7.817,11.724,16.076,13.577C117.446,82.807,143.206,63.193,170.029,69.209z"
	/>
<path style="fill:#9AD14B;" d="M504.377,282.411c3.051,30.981-39.398,41.622-41.995,20.104
	C458.62,271.357,502.125,259.55,504.377,282.411z"/>
<path style="fill:#8DC133;" d="M504.386,282.534c-2.13-23.09-45.766-11.177-42.004,19.981c0.728,6.033,5.601,11.348,13.931,11.246
	C474.742,297.06,487.75,282.734,504.386,282.534z"/>
<path style="fill:#9AD14B;" d="M438.073,195.19c-1.979,3.807-5.834,6.342-10.114,6.648c-35.385,2.534-59.993-34.487-43.965-66.13
	c2.092-4.131,6.188-6.823,10.809-7.105C430.214,126.439,454.432,163.716,438.073,195.19z"/>
<path style="fill:#8DC133;" d="M402.801,128.835c-8.02-0.919-15.132-0.382-18.806,6.873c-16.03,31.648,8.585,68.664,43.965,66.13
	c4.28-0.307,8.135-2.84,10.114-6.648c1.336-2.571,2.412-5.259,3.235-8.016C413.086,183.943,394.671,156.088,402.801,128.835z"/>
<circle style="fill:#F6B138;" cx="302.517" cy="115.05" r="13.471"/>
<circle style="fill:#9AD14B;" cx="278.944" cy="48.547" r="10.101"/>
<circle style="fill:#F6B138;" cx="145.118" cy="178.708" r="10.101"/>
<path d="M460.629,358.454c-3.978-1.174-8.147,1.091-9.322,5.063c-17.532,59.206-83.299,95.281-146.348,95.281
	c-17.015,0-279.573,0-297.458,0c-4.144,0-7.501,3.357-7.501,7.501s3.357,7.501,7.501,7.501h297.44
	c2.294-0.427,68.524,3.797,124.047-47.617c17.492-16.199,30.185-36.395,36.703-58.404
	C466.867,363.805,464.601,359.632,460.629,358.454z"/>
<path d="M61.474,362.622c131.339-0.005,124.805,0.014,125.245-0.016c45.499-2.933,84.432-44.021,74.055-90.088
	c-7.343-32.606-38.425-57.613-72.364-49.965c-26.721,6.019-47.44,31.566-41.107,59.685c8.654,38.425,54.958,46.593,73.671,17.001
	c2.214-3.501,1.17-8.135-2.33-10.349c-3.499-2.214-8.135-1.171-10.349,2.33c-3.365,5.323-8.603,9.017-14.747,10.4
	c-22.439,5.062-41.779-23.776-27.523-46.321c5.862-9.27,14.982-15.702,25.682-18.112c25.719-5.79,48.916,14.137,54.433,38.627
	c8.232,36.548-23.546,69.319-60.151,71.806H61.473c-4.144,0-7.501,3.357-7.501,7.501C53.972,359.264,57.33,362.622,61.474,362.622z"
	/>
<path d="M244.191,183.241c1.695-0.699,3.077-1.996,3.882-3.645c14.493-29.691-15.555-61.779-46.156-49.167
	c-1.695,0.699-3.076,1.996-3.882,3.645C183.426,164.003,213.821,195.753,244.191,183.241z M210.42,143.375
	c16.073-4.099,30.386,11.105,25.27,26.918C219.616,174.392,205.305,159.189,210.42,143.375z"/>
<path d="M97.287,110.069c8.623,5.728,18.615,8.578,28.601,8.578c34.274,0,58.574-32.475,49.995-64.885
	c-0.469-1.773-1.572-3.313-3.101-4.33c-17.78-11.808-41.38-11.39-58.726,1.036c-17.346,12.428-25.331,34.64-19.868,55.271
	C94.657,107.513,95.759,109.053,97.287,110.069z M162.009,60.426c5.488,30.376-26.827,53.684-53.949,38.65
	C102.571,68.702,134.897,45.391,162.009,60.426z"/>
<path d="M508.38,269.137c-0.805-1.648-2.186-2.945-3.882-3.645c-30.544-12.581-60.677,19.414-46.157,49.167
	c0.805,1.648,2.186,2.944,3.882,3.644c13.734,5.661,29.832,2.219,40.042-8.657C512.452,298.796,514.909,282.516,508.38,269.137z
	 M470.725,305.358c-5.106-15.787,9.17-31.024,25.271-26.918C501.099,294.219,486.831,309.472,470.725,305.358z"/>
<path d="M281.56,114.797c0,11.564,9.407,20.972,20.972,20.972c11.564,0,20.972-9.407,20.972-20.972s-9.407-20.973-20.972-20.973
	C290.967,93.825,281.56,103.234,281.56,114.797z M302.531,108.827c3.291,0,5.97,2.678,5.97,5.971c0,3.291-2.678,5.97-5.97,5.97
	c-3.291,0-5.97-2.678-5.97-5.97C296.561,111.505,299.24,108.827,302.531,108.827z"/>
<circle cx="278.954" cy="48.302" r="10.101"/>
<circle cx="145.138" cy="178.458" r="10.101"/>
<path d="M31.524,418.151h68.506c4.144,0,7.501-3.357,7.501-7.501c0-4.144-3.357-7.501-7.501-7.501H31.524
	c-4.144,0-7.501,3.357-7.501,7.501C24.023,414.793,27.38,418.151,31.524,418.151z"/>
<path d="M313.098,214.19c-1.723,3.767-0.065,8.218,3.701,9.94c49.575,22.674,67.181,98.578,20.987,144.771
	c-37.578,37.58-82.574,34.224-82.69,34.247H135.035c-4.144,0-7.501,3.357-7.501,7.501c0,4.143,3.357,7.501,7.501,7.501
	c0.287,0,122.12,0,120.074,0c35.238,0,68.368-13.723,93.286-38.641c53.019-53.021,34.817-141.505-25.357-169.022
	C319.268,208.762,314.819,210.423,313.098,214.19z"/>
<path d="M427.315,209.126c2.732,6.964,4.832,13.609,6.233,19.798c0.788,3.482,3.881,5.847,7.309,5.847
	c4.801,0,8.388-4.454,7.322-9.159c-1.546-6.83-3.828-14.097-6.779-21.656c6.036-8.778,9.267-19.04,9.341-29.773
	c0.028-4.143-3.306-7.523-7.449-7.553c-4.28,0-7.525,3.412-7.553,7.449c-0.048,6.941-2.031,13.849-5.632,19.74
	c-31.862,4.547-54.745-30.156-37.902-57.665c11.813-1.679,24.02,2.343,32.45,10.837c2.919,2.941,7.669,2.956,10.607,0.04
	c2.94-2.918,2.958-7.668,0.04-10.607c-12.706-12.8-31.557-18.316-49.196-14.398c-1.79,0.397-3.373,1.438-4.45,2.924
	C355.788,160.7,382.506,211.242,427.315,209.126z"/>
<g>
</g>
<g>
</g>
<g>
</g>
<g>
</g>
<g>
</g>
<g>
</g>
<g>
</g>
<g>
</g>
<g>
</g>
<g>
</g>
<g>
</g>
<g>
</g>
<g>
</g>
<g>
</g>
<g>
</g>
</svg>
